# xmcd
#
# Track frame offsets: 
#        150
#        20880
#        41542
#        59794
#        80567
#        103311
#        124638
#        141366
#        159736
#        180083
#        198648
#        215674
#        233249
#        250602
#        270696
#        297466
#
# Disc length: 3986 seconds
#
# Revision: 3
# Processed by: cddbd v1.5.2PL0 Copyright (c) Steve Scherf et al.
# Submitted via: ExactAudioCopyFreeDBPlugin 1.0
#
DISCID=f90f9010
DTITLE=Various Artist - The Rough Guide To Merengue Dance [CD1)
DYEAR=2009
DGENRE=Merengue
TTITLE0=Jose Peña Suazo Y La Banda Gorda - No Doy Mi Truco
TTITLE1=Jonny Ventura - El Mangú
TTITLE2=Milly Quezada - Yo Soy Mujer Y No Soy Una Santa
TTITLE3=Joseíto Mateo - El Papá De Los Merengueros
TTITLE4=Wilfrido Vargas - Tu Eres Un Veneno
TTITLE5=Nelson De La Olla Y Su Banda Chula - Las Cosas Lindas De Mi Pa
TTITLE5=ís
TTITLE6=María Díaz - El Hombre Que Quise
TTITLE7=El Prodigio - Corazón Maldito
TTITLE8=Kinito Méndez - Tírame Tu Que Yo Devuelvo
TTITLE9=Papi Sánchez - Que Dura Tu 'Ta'
TTITLE10=El Boy, Krissppy and Fuera De Ley - Ajena
TTITLE11=Chiqui Rodriguez - Mirala A Ella
TTITLE12=Charlie Valens - El Hijo De Tuta
TTITLE13=Rikarena - Merengue Riko
TTITLE14=Carlitos Almonte Y Su Acordeón Cinco Estrellas - Miladis
TTITLE15= Data
EXTD=
EXTT0=
EXTT1=
EXTT2=
EXTT3=
EXTT4=
EXTT5=
EXTT6=
EXTT7=
EXTT8=
EXTT9=
EXTT10=
EXTT11=
EXTT12=
EXTT13=
EXTT14=
EXTT15=
PLAYORDER=
